# xmcd
#
# Track frame offsets: 
#        150
#        21542
#        41441
#        59445
#        74857
#        92445
#        111730
#        131084
#        150726
#        171376
#        186835
#        205902
#
# Disc length: 3029 seconds
#
# Revision: 1
# Processed by: cddbd v1.5.1PL2 Copyright (c) Steve Scherf et al.
# Submitted via: ExactAudioCopy v0.95a5
#
DISCID=ba0bd30c
DTITLE=Various Artist - Salsa Nights vol 1
DYEAR=2003
DGENRE=Salsa
TTITLE0=Sonora Carruseles - Coquetona
TTITLE1=Fruko y sus Tesos - El Swing de Fruko
TTITLE2=Los Tupamaros - En Efectivo
TTITLE3=Los Nemus - Brujeria
TTITLE4=The Latin Brothers - Quierela
TTITLE5=Sonora Carruseles - Para Ustedes
TTITLE6=Joe Arroyo - Barranquillera
TTITLE7=Los Nemus - Cuero, Maraca y Bongo
TTITLE8=Freddy Cruz y sus Fuerza Latina - El Cacharrito
TTITLE9=Los Tupamaros - La Calle de la Rumba
TTITLE10=Fruko y sus Tesos - La Burrita
TTITLE11=Sonora Carruseles - Vengo Caliente
EXTD=YEAR: 2003
EXTT0=
EXTT1=
EXTT2=
EXTT3=
EXTT4=
EXTT5=
EXTT6=
EXTT7=
EXTT8=
EXTT9=
EXTT10=
EXTT11=
PLAYORDER=
